# xmcd CD database file
#
# Track frame offsets:
#	187
#	22467
#	29379
#	53854
#	71322
#	97004
#	117409
#	144544
#	164334
#	205559
#	226177
#	264107
#
# Disc length: 3612 seconds
#
# Revision: 0
# Processed by: cddbd v1.5.1PL0 Copyright (c) Steve Scherf et al.
# Submitted via: CDex 1.51
#
DISCID=a20e1a0c
DTITLE=檜山修之・金月真美・他 - 餓沙羅鬼見聞録CD3「人、嵬」
DYEAR=1900
DGENRE=アニメ
TTITLE0=第壱章
TTITLE1=種ともこ/MESSAGE #9(TV Version)
TTITLE2=第弐章
TTITLE3=第参章
TTITLE4=第四章
TTITLE5=第伍章
TTITLE6=第六章
TTITLE7=第七章
TTITLE8=第八章
TTITLE9=第九章
TTITLE10=第拾章
TTITLE11=種ともこ/LOVE SONG(TV Version)
EXTD=
EXTT0=
EXTT1=
EXTT2=
EXTT3=
EXTT4=
EXTT5=
EXTT6=
EXTT7=
EXTT8=
EXTT9=
EXTT10=
EXTT11=
PLAYORDER=
